<?xml version="1.0" encoding="UTF-8"?>
<!DOCTYPE svg PUBLIC "-//W3C//DTD SVG 1.1//EN" "http://www.w3.org/Graphics/SVG/1.1/DTD/svg11.dtd">
<!-- Creator: CorelDRAW -->
<svg xmlns="http://www.w3.org/2000/svg" xml:space="preserve" width="3.45586in" height="3.45749in" version="1.1" style="shape-rendering:geometricPrecision; text-rendering:geometricPrecision; image-rendering:optimizeQuality; fill-rule:evenodd; clip-rule:evenodd"
viewBox="0 0 231.03 231.14"
 xmlns:xlink="http://www.w3.org/1999/xlink"
 xmlns:xodm="http://www.corel.com/coreldraw/odm/2003">
 <defs>
  <style type="text/css">
   <![CDATA[
    .str0 {stroke:#0A743A;stroke-width:9.28;stroke-miterlimit:2.61313}
    .fil0 {fill:none}
    .fil1 {fill:#0A743A}
   ]]>
  </style>
 </defs>
 <g id="Layer_x0020_1">
  <metadata id="CorelCorpID_0Corel-Layer"/>
  <g id="_2231551201008">
   <path class="fil0 str0" d="M100.57 5.79c-62.32,9.26 -102.84,64.68 -94.96,124.53 4.39,33.32 21.84,55.77 39.51,70.9 19.11,16.36 51.93,29.18 85.85,24.18 55.65,-8.21 102.94,-58.78 94.47,-124.67 -7.82,-60.84 -65.53,-103.77 -124.87,-94.95z"/>
   <path class="fil0 str0" d="M106.57 50.14c-17.11,4.59 -31.92,21.66 -26.09,44.23 4.19,16.25 21.88,31.01 43.63,25.71 16.7,-4.07 31.65,-21.99 26.32,-43.68 -4.12,-16.75 -22.02,-32.12 -43.85,-26.26z"/>
   <path class="fil1" d="M172.89 182.7c7.08,-19.81 -17.4,-49.43 -52.51,-52.06 -31.25,-2.35 -59.35,16.28 -63.26,43.06 -1.81,12.36 8.28,13.77 9.29,3.96 2.2,-21.24 19.64,-35.21 43,-37.35 22.37,-2.05 45.57,8.33 52.85,27.3 2.9,7.56 -0.17,19.21 10.62,15.09z"/>
  </g>
 </g>
</svg>
